<svg width="512" height="512" viewBox="0 0 512 512" fill="none" xmlns="http://www.w3.org/2000/svg">
	<path d="M223.949 353.798C227.932 357.767 233.331 360 238.965 360C244.594 360 249.993 357.772 253.976 353.798L329.779 278.167C338.074 269.89 338.074 256.48 329.779 248.203C321.489 239.932 308.042 239.932 299.753 248.203L238.965 308.853L211.249 281.199C202.954 272.928 189.512 272.928 181.217 281.199C172.928 289.47 172.928 302.886 181.217 311.163L223.949 353.798Z" fill="#FFFFFF" />
	<path d="M457.344 32.1914H429.77V15.1172C429.77 6.76953 423 0 414.652 0C406.305 0 399.535 6.76953 399.535 15.1172V32.1914H369.828V15.1172C369.828 6.76953 363.059 0 354.707 0C346.359 0 339.59 6.76953 339.59 15.1172V32.1914H172.652V15.1172C172.652 6.76953 165.883 0 157.531 0C149.184 0 142.414 6.76953 142.414 15.1172V32.1914H112.707V15.1172C112.707 6.76953 105.937 0 97.5859 0C89.2383 0 82.4688 6.76953 82.4688 15.1172V32.1914H54.8906C27.9336 32.1914 6 54.125 6 81.0859V463.109C6 490.066 27.9336 512 54.8906 512H457.344C484.305 512 506.234 490.066 506.234 463.109V81.0859C506.234 54.125 484.301 32.1914 457.344 32.1914ZM475.996 463.109C475.996 473.395 467.629 481.766 457.344 481.766H54.8906C44.6055 481.766 36.2344 473.395 36.2344 463.109V157.898H475.996V463.109ZM36.2344 81.0859C36.2344 70.7969 44.6055 62.4297 54.8906 62.4297H82.4688V79.5039C82.4688 87.8516 89.2383 94.6211 97.5898 94.6211C105.938 94.6211 112.707 87.8516 112.707 79.5039V62.4297H142.414V79.5039C142.414 87.8516 149.184 94.6211 157.535 94.6211C165.883 94.6211 172.652 87.8516 172.652 79.5039V62.4297H339.59V79.5039C339.59 87.8516 346.359 94.6211 354.711 94.6211C363.059 94.6211 369.828 87.8516 369.828 79.5039V62.4297H399.535V79.5039C399.535 87.8516 406.305 94.6211 414.652 94.6211C423.004 94.6211 429.773 87.8516 429.773 79.5039V62.4297H457.344C467.629 62.4297 476 70.7969 476 81.0859V127.66H36.2344V81.0859Z" fill="#FFFFFF" />
	<rect x="28" y="59" width="455" height="80" fill="#FFFFFF" />
</svg>
